<svg xmlns="http://www.w3.org/2000/svg" width="414" height="896" viewBox="0 0 414 896">
  <defs>
    <linearGradient id="bg" x1="0" y1="0" x2="0" y2="1">
      <stop offset="0%" stop-color="#0f0a1e"/>
      <stop offset="100%" stop-color="#1a0a2e"/>
    </linearGradient>
    <linearGradient id="accent" x1="0" y1="0" x2="1" y2="1">
      <stop offset="0%" stop-color="#A078FF"/>
      <stop offset="100%" stop-color="#9345F2"/>
    </linearGradient>
    <linearGradient id="card" x1="0" y1="0" x2="0" y2="1">
      <stop offset="0%" stop-color="rgba(255,255,255,0.06)"/>
      <stop offset="100%" stop-color="rgba(255,255,255,0.02)"/>
    </linearGradient>
  </defs>
  <rect width="414" height="896" fill="url(#bg)" rx="40"/>
  <!-- Status bar -->
  <rect x="0" y="0" width="414" height="44" fill="rgba(0,0,0,0.3)"/>
  <text x="30" y="28" fill="rgba(255,255,255,0.6)" font-family="system-ui" font-size="12">9:41</text>
  <!-- Header -->
  <rect x="0" y="44" width="414" height="56" fill="rgba(255,255,255,0.04)"/>
  <text x="30" y="78" fill="white" font-family="system-ui" font-size="18" font-weight="bold">Al Quran</text>
  <rect x="330" y="58" width="56" height="28" rx="14" fill="rgba(255,255,255,0.08)"/>
  <text x="344" y="76" fill="rgba(255,255,255,0.5)" font-family="system-ui" font-size="10">⌘K</text>
  <!-- Tab bar -->
  <rect x="20" y="110" width="374" height="36" rx="18" fill="rgba(255,255,255,0.04)"/>
  <rect x="22" y="112" width="80" height="32" rx="16" fill="url(#accent)"/>
  <text x="62" y="132" fill="white" font-family="system-ui" font-size="12" text-anchor="middle" font-weight="600">Surah</text>
  <text x="148" y="132" fill="rgba(255,255,255,0.4)" font-family="system-ui" font-size="12" text-anchor="middle">Para</text>
  <!-- Last read card -->
  <rect x="20" y="160" width="374" height="72" rx="16" fill="rgba(162,120,255,0.1)" stroke="rgba(162,120,255,0.2)" stroke-width="1"/>
  <text x="36" y="186" fill="rgba(255,255,255,0.5)" font-family="system-ui" font-size="11">Last Read</text>
  <text x="36" y="210" fill="white" font-family="system-ui" font-size="14" font-weight="600">Al-Fatiha</text>
  <rect x="340" y="178" width="40" height="40" rx="20" fill="url(#accent)"/>
  <text x="360" y="204" fill="white" font-family="system-ui" font-size="18" text-anchor="middle">▶</text>
  <!-- Surah list -->
  <rect x="20" y="248" width="374" height="60" rx="14" fill="url(#card)"/>
  <rect x="36" y="264" width="28" height="28" rx="14" fill="rgba(255,255,255,0.06)"/>
  <text x="50" y="283" fill="rgba(255,255,255,0.5)" font-family="system-ui" font-size="11" text-anchor="middle">1</text>
  <text x="76" y="276" fill="white" font-family="system-ui" font-size="14" font-weight="600">Al-Fatiha</text>
  <text x="76" y="294" fill="rgba(255,255,255,0.35)" font-family="system-ui" font-size="11">The Opening</text>
  <text x="360" y="284" fill="rgba(255,255,255,0.4)" font-family="system-ui" font-size="11" text-anchor="end" font-style="italic">الفاتحة</text>
  <rect x="20" y="312" width="374" height="60" rx="14" fill="url(#card)"/>
  <rect x="36" y="328" width="28" height="28" rx="14" fill="rgba(255,255,255,0.06)"/>
  <text x="50" y="347" fill="rgba(255,255,255,0.5)" font-family="system-ui" font-size="11" text-anchor="middle">2</text>
  <text x="76" y="340" fill="white" font-family="system-ui" font-size="14" font-weight="600">Al-Baqarah</text>
  <text x="76" y="358" fill="rgba(255,255,255,0.35)" font-family="system-ui" font-size="11">The Cow</text>
  <text x="360" y="348" fill="rgba(255,255,255,0.4)" font-family="system-ui" font-size="11" text-anchor="end" font-style="italic">البقرة</text>
  <rect x="20" y="376" width="374" height="60" rx="14" fill="url(#card)"/>
  <rect x="36" y="392" width="28" height="28" rx="14" fill="rgba(255,255,255,0.06)"/>
  <text x="50" y="411" fill="rgba(255,255,255,0.5)" font-family="system-ui" font-size="11" text-anchor="middle">3</text>
  <text x="76" y="404" fill="white" font-family="system-ui" font-size="14" font-weight="600">Ali 'Imran</text>
  <text x="76" y="422" fill="rgba(255,255,255,0.35)" font-family="system-ui" font-size="11">Family of Imran</text>
  <text x="360" y="412" fill="rgba(255,255,255,0.4)" font-family="system-ui" font-size="11" text-anchor="end" font-style="italic">آل عمران</text>
  <!-- Bottom nav -->
  <rect x="0" y="830" width="414" height="66" fill="rgba(15,10,30,0.95)"/>
  <rect x="0" y="830" width="414" height="1" fill="rgba(255,255,255,0.06)"/>
  <text x="52" y="865" fill="#A078FF" font-family="system-ui" font-size="20" text-anchor="middle">📖</text>
  <text x="52" y="882" fill="#A078FF" font-family="system-ui" font-size="9" text-anchor="middle">Surah</text>
  <text x="145" y="865" fill="rgba(255,255,255,0.4)" font-family="system-ui" font-size="20" text-anchor="middle">📗</text>
  <text x="145" y="882" fill="rgba(255,255,255,0.4)" font-family="system-ui" font-size="9" text-anchor="middle">Para</text>
  <text x="238" y="865" fill="rgba(255,255,255,0.4)" font-family="system-ui" font-size="20" text-anchor="middle">⚙️</text>
  <text x="238" y="882" fill="rgba(255,255,255,0.4)" font-family="system-ui" font-size="9" text-anchor="middle">Settings</text>
</svg>
