<svg xmlns="http://www.w3.org/2000/svg" width="400" height="400" viewBox="0 0 400 NaN" fill-rule="evenodd" xmlnsV="https://vecta.io/nano"><path d="M327.8 37.6c.14.227-.196.4-.776.4-.563 0-1.024.18-1.024.4s-.461.4-1.024.4c-.58 0-.916.173-.776.4s-.251.4-.943.4c-.655 0-1.253.188-1.33.418s-.541.448-1.033.485-.894.209-.894.382-.525.315-1.167.315-1.23.19-1.307.422-.497.488-.933.569-.838.184-.893.228c-.128.104-.781.267-1.324.331-.233.028-.312.231-.175.451.147.238-.129.34-.677.25-.508-.083-1.122.007-1.364.199s-.918.389-1.5.437-1.06.228-1.06.4-.518.313-1.151.313-1.36.251-1.615.559c-.264.319-.827.463-1.311.337-.579-.152-.757-.075-.562.241.188.304-.058.463-.714.463-.55 0-1.111.18-1.247.4s-.867.4-1.624.4-1.376.143-1.376.318-.675.363-1.5.418-1.56.271-1.633.482-.824.382-1.667.382-1.593.177-1.667.393-.808.441-1.632.5-1.5.242-1.5.407-.721.3-1.601.3-1.6.18-1.6.4-.529.4-1.176.4-1.288.18-1.424.4-1.147.4-2.247.4c-1.232 0-1.905.154-1.753.4s-.463.4-1.576.4c-1.003 0-1.824.18-1.824.4s-.191.4-.424.4-.312-.18-.176-.4-.033-.4-.376-.4-.627.225-.63.5c-.004.333-.136.3-.394-.1s-.39-.433-.394-.1c-.005.383-1.836.5-7.806.5-4.933 0-7.8-.147-7.8-.4 0-.22-.281-.4-.624-.4s-.512.18-.376.4-.023.4-.353.4-.711-.18-.847-.4-1.317-.4-2.624-.4c-1.317 0-2.376-.178-2.376-.4s-1.133-.4-2.6-.4c-1.588 0-2.6.167-2.6.43 0 .237-.495.398-1.1.358-3.123-.206-7.726.047-7.5.412.153.248-.596.4-1.976.4-1.223 0-2.224.18-2.224.4s-.461.4-1.024.4-.919.168-.792.373-.268.388-.877.405c-2.015.056-2.507.152-2.507.489 0 .183-.272.333-.605.333s-.918.168-1.3.374-1.28.609-1.995.897-1.3.66-1.3.827-.338.302-.751.302a1.85 1.85 0 0 0-1.245.596c-.272.327-.656.496-.852.374s-.465.06-.597.402-.355.556-.497.473c-.482-.282-2.111.546-1.863.947.148.239-.029.293-.44.135-.466-.178-.593-.112-.397.205.174.281.04.468-.334.468-.343 0-.624.191-.624.424s-.147.332-.327.221-.802.238-1.383.776-1.181.979-1.335.979-.986.72-1.848 1.6-1.745 1.6-1.961 1.6-.282.18-.146.4-.039.4-.389.4-.739.269-.865.598-.391.498-.588.376-.358.07-.358.426-.153.553-.34.437-.587.279-.889.877-1.229 1.775-2.06 2.617-1.511 1.697-1.511 1.9-.18.369-.4.369-.4.258-.4.573-.384.695-.853.844-.694.386-.5.527c.775.563.228 146.857-.549 146.849-2.15-.02-4.431-2.274-5.661-5.593-4.359-11.759-15.561-22.504-27.693-26.561-5.989-2.002-15.786-2.866-20.744-1.827-3.038.636-16.246.924-20.8.453-9.966-1.03-30.827-6.372-43.2-11.062l-5-1.887-4.4-1.724c-.66-.286-2.356-.985-3.768-1.555s-2.916-1.351-3.341-1.736c-1.956-1.769-1.891-.401-1.897-39.981l-.345-37.654c-.202-.32-.284.241-.204 1.4.074 1.064.21 23.27.302 49.348l.168 47.413.887 1.887c.796 1.695 4.52 4.286 6.159 4.286.2 0 5.55 2.204 9.739 4.012l1.8.748c.495.198 1.753.738 2.796 1.2s1.989.84 2.104.84 1.062.378 2.104.84L91 208.789c.44.17 1.7.715 2.8 1.211s2.36 1.034 2.8 1.197c.998.369 2.387.942 4.2 1.731.77.335 2.39.998 3.6 1.472s2.74 1.106 3.4 1.404 2.82 1.194 4.8 1.991 4.363 1.798 5.296 2.227 1.789.778 1.904.778 1.062.378 2.104.84l2.696 1.149c.44.17 1.7.715 2.8 1.211s2.405 1.059 2.9 1.251c1.834.712 3.119 1.252 3.795 1.596.382.194.967.353 1.3.353s.605.18.605.4.272.4.605.4.918.159 1.3.353c.645.328 1.508.693 3.795 1.606.495.198 1.53.63 2.3.962l6 2.479 8.896 3.753c1.042.466 2.06.847 2.262.847s1.148.386 2.104.857 2.098.993 2.538 1.16 1.653.681 2.696 1.143 1.989.84 2.104.84 1.062.378 2.104.84 2.256.976 2.696 1.143 1.582.689 2.538 1.16 1.909.857 2.119.857 1.127.36 2.037.8 1.797.8 1.969.8 1.264.431 2.425.957c4.721 2.141 12.069 5.043 12.767 5.043.713 0 .745-.618.745-14.2v-14.2l.9-.001c1.758-.003 5.5-3.229 5.5-4.742 0-.257.154-.78.342-1.162 5.355-10.869 9.573-16.081 17.02-21.034 9.856-6.555 18.941-8.307 34.638-6.677 8.079.838 18.159.516 24.1-.772l3.8-.834c1.045-.232 2.53-.514 3.3-.625s1.76-.358 2.2-.548c.81-.349 2.219-.687 4.4-1.056.66-.112 1.56-.346 2-.521.815-.323 2.183-.732 5.4-1.613.99-.271 2.113-.655 2.495-.854a3.8 3.8 0 0 1 1.476-.361c.43 0 .893-.18 1.029-.4s.766-.4 1.4-.4 1.264-.18 1.4-.4.599-.4 1.029-.4a3.64 3.64 0 0 0 1.476-.381c.382-.21 1.865-.762 3.295-1.226s2.96-.998 3.4-1.184 2.6-1.01 4.8-1.832c5.348-1.998 9.381-3.886 10.6-4.962l1-.882.301-38.267.048-93.766c-.369-.825-.913-1.5-1.21-1.5s-.539-.18-.539-.4-.36-.4-.8-.4-.8-.18-.8-.4c0-.234-1.341-.4-3.224-.4-2.047 0-3.133.146-2.976.4m-77.093 15.086c-.601.091-1.681.093-2.4.004s-.227-.164 1.093-.166 1.908.071 1.307.162" fill="#b8c2c8"/><path d="M21.6 81.2c0 .22-.27.4-.6.4s-.6.18-.6.4-.27.4-.6.4-.6.356-.6.8-.18.8-.4.8c-.451 0-.585 125.682-.135 126.132.146.146.594-.276.997-.937 2.292-3.769 5.996-3.668 14.938.405.88.401 3.04 1.299 4.8 1.997l4.6 1.876 2.2.928c.44.176 1.653.697 2.696 1.159s1.989.84 2.104.84 1.062.381 2.104.847c2.423 1.082 3.241 1.428 9.296 3.933l17.7 7.389c.715.313 2.29.957 3.5 1.431s2.785 1.118 3.5 1.431l2.6 1.137c.715.312 2.74 1.138 4.5 1.835s3.92 1.592 4.8 1.988 4.3 1.829 7.6 3.186l7.2 3.013c.66.301 2.19.936 3.4 1.41s2.785 1.118 3.5 1.431l2.6 1.138c.715.313 2.29.957 3.5 1.431s2.83 1.137 3.6 1.472l2.2.959c.44.192 4.76 1.987 9.6 3.989l17.296 7.221c.932.418 1.789.759 1.904.759s1.062.378 2.104.84l2.696 1.159 2.2.916 14.8 6.174 9.4 3.93c6.399 2.755 9.052 3.468 9.6 2.581.136-.22.597-.4 1.024-.4s.776-.18.776-.4.272-.4.605-.4.918-.159 1.3-.353c.7-.356 2.129-.955 3.795-1.59.495-.189 1.682-.729 2.638-1.2s1.896-.857 2.09-.857 1.531-.54 2.972-1.2 2.707-1.2 2.814-1.2 1.048-.381 2.09-.847c3.207-1.431 4.216-1.859 6.496-2.753 1.21-.474 2.74-1.108 3.4-1.409s6.06-2.554 12-5.008l12.2-5.063 2.2-.921c.44-.176 1.653-.697 2.696-1.159s1.989-.84 2.104-.84 1.062-.381 2.104-.847c3.263-1.456 18.854-7.96 23.042-9.61a93.87 93.87 0 0 0 3.654-1.543c.915-.417 2.64-1.142 3.832-1.61l3.468-1.421 2.6-1.137c.715-.312 2.74-1.138 4.5-1.835s3.92-1.595 4.8-1.993 3.13-1.349 5-2.111l17.1-7.102 1.8-.751c.495-.198 1.753-.738 2.796-1.2s1.989-.84 2.104-.84 1.062-.381 2.104-.847c2.83-1.263 3.964-1.745 7.696-3.272l20.755-8.64c4.576-1.922 7.824-1.302 9.503 1.814.398.74.863 1.345 1.033 1.345s.309-28.53.309-63.4l-.302-63.4c-.167 0-.542-.54-.834-1.2-.323-.731-.831-1.2-1.298-1.2-.421 0-.766-.18-.766-.4 0-.235-1.4-.4-3.4-.4s-3.4.165-3.4.4c0 .22-.54.4-1.2.4s-1.2.18-1.2.4-.36.4-.8.4-.8.18-.8.4-.439.4-.976.4-1.088.18-1.224.4-.597.4-1.024.4-.776.18-.776.4-.36.4-.8.4-.8.18-.8.4-.324.4-.72.4c-.894 0-2.873.894-2.877 1.3-.002.165-.543.3-1.203.3s-1.2.18-1.2.4-.36.4-.8.4-.8.18-.8.4-.36.4-.8.4-.8.18-.8.4-.54.4-1.2.4-1.2.18-1.2.4-.36.4-.8.4-.8.18-.8.4-.45.4-1 .4-1 .18-1 .4-.354.4-.786.4c-.71 0-2.654.711-4.509 1.649-.382.193-.967.351-1.3.351s-.605.18-.605.4-.339.4-.753.4c-1.238 0-1.236-.071-1.242 50.92-.006 54.132.171 50.444-2.505 52.38-1.212.877-2.172 1.37-4.4 2.259l-2.4 1-3 1.282-2.3.959c-.44.175-1.43.593-2.2.928a116.25 116.25 0 0 1-3.6 1.459c-1.21.468-2.963 1.202-3.896 1.632s-1.86.781-2.062.781-1.148.386-2.104.857-2.098.993-2.538 1.16-1.653.681-2.696 1.143-2.06.84-2.262.84-1.148.386-2.104.857-2.098.993-2.538 1.16-1.653.681-2.696 1.143-1.989.84-2.104.84-1.062.378-2.104.84l-2.696 1.159a126.73 126.73 0 0 0-2.2.92l-9.909 4.099c-2.468.937-3.216 1.251-6.987 2.935-1.042.466-1.983.847-2.09.847s-1.373.54-2.814 1.2-2.779 1.2-2.972 1.2-1.134.386-2.09.857-2.098.993-2.538 1.16-1.653.681-2.696 1.143-2.06.84-2.262.84-1.148.386-2.104.857-2.098.993-2.538 1.159-1.43.574-2.2.907-3.92 1.63-7 2.883l-7.712 3.237c-1.161.526-2.259.957-2.438.957s-.85.25-1.489.556a107.81 107.81 0 0 1-5.161 2.244 133.94 133.94 0 0 0-2.3.959l-3 1.282-2.4 1-1.8.718c-.495.198-1.53.633-2.3.967s-2.21.922-3.2 1.304-2.021.867-2.291 1.075c-1.122.864-5.03.438-7.819-.852-1.491-.689-2.787-1.253-2.882-1.253s-2.025-.785-4.29-1.744l-9.718-4.05-7.2-3.02c-.88-.393-3.04-1.287-4.8-1.986s-3.92-1.599-4.8-2-3.04-1.301-4.8-2-3.92-1.596-4.8-1.992-4.12-1.749-7.2-3.004l-7.232-3.023c-.898-.406-2.605-1.123-3.793-1.591s-3.115-1.288-4.28-1.821-2.347-.969-2.627-.969a1.56 1.56 0 0 1-.888-.336c-.209-.185-1.01-.576-1.78-.87s-2.53-1.043-3.91-1.664-2.579-1.13-2.663-1.13c-.135 0-21.166-8.664-23.227-9.569l-2.696-1.191c-1.042-.462-1.989-.84-2.104-.84s-1.062-.378-2.104-.84l-2.696-1.159c-1.458-.582-3.983-1.68-5.161-2.245-.639-.306-1.31-.556-1.49-.556s-1.458-.509-2.839-1.132a175.11 175.11 0 0 0-5.854-2.462c-1.839-.732-3.87-1.774-4.514-2.316-2.498-2.102-2.341 1.385-2.347-52.37-.006-50.991-.004-50.92-1.242-50.92-.414 0-.753-.18-.753-.4s-.265-.4-.589-.4-1.606-.45-2.849-1-2.599-1-3.012-1-.75-.18-.75-.4-.45-.4-1-.4-1-.18-1-.4-.36-.4-.8-.4-.8-.18-.8-.4-.54-.4-1.2-.4-1.2-.18-1.2-.4-.36-.4-.8-.4-.8-.18-.8-.4-.36-.4-.8-.4-.8-.18-.8-.4-.54-.4-1.2-.4-1.2-.18-1.2-.4-.36-.4-.8-.4-.8-.18-.8-.4-.45-.4-1-.4-1-.18-1-.4-.36-.4-.8-.4-.8-.18-.8-.4-.349-.4-.776-.4-.888-.18-1.024-.4-.687-.4-1.224-.4-.976-.18-.976-.4-.36-.4-.8-.4-.8-.18-.8-.4-.54-.4-1.2-.4-1.2-.18-1.2-.4c0-.235-1.4-.4-3.4-.4s-3.4.165-3.4.4m48.1 201.465a.89.89 0 0 0-.5.768c0 .312-.18.567-.4.567-.262 0-.4 8.8-.4 25.6l.332 25.6c.183 0 .571-.444.861-.987.528-.986 3.221-3.013 4.004-3.013.228 0 .726-.165 1.108-.367 1.064-.563 4.46-2.033 4.695-2.033.115 0 .972-.341 1.904-.759s3.226-1.393 5.096-2.17l12.124-5.041 8.888-3.63c.09 0 1.118-.436 2.283-.969s3.106-1.357 4.312-1.831 2.778-1.118 3.493-1.431l2.6-1.138c.715-.313 2.29-.955 3.5-1.427 5.232-2.04 7.662-3.604 5.6-3.604-.44 0-.8-.18-.8-.4s-.36-.4-.8-.4-.8-.18-.8-.4-.36-.4-.8-.4-.8-.18-.8-.4-.45-.4-1-.4-1-.18-1-.4-.349-.4-.776-.4-.888-.18-1.024-.4-.687-.4-1.224-.4-.976-.18-.976-.4-.36-.4-.8-.4-.8-.18-.8-.4-.349-.4-.776-.4-.888-.18-1.024-.4-.687-.4-1.224-.4-.976-.18-.976-.4-.36-.4-.8-.4-.8-.18-.8-.4-.54-.4-1.2-.4-1.2-.18-1.2-.4-.36-.4-.8-.4-.8-.18-.8-.4-.349-.4-.776-.4-.888-.18-1.024-.4-.597-.4-1.024-.4-.776-.18-.776-.4-.349-.4-.776-.4-.888-.18-1.024-.4-.687-.4-1.224-.4-.976-.18-.976-.4-.236-.4-.525-.4-1.234-.339-2.1-.753-2.158-.878-2.87-1.031-1.399-.444-1.524-.647-.668-.369-1.205-.369-.976-.18-.976-.4-.36-.4-.8-.4-.8-.18-.8-.4-.439-.4-.976-.4-1.088-.18-1.224-.4-.597-.4-1.024-.4-.776-.18-.776-.4-.36-.4-.8-.4-.8-.18-.8-.4-.54-.4-1.2-.4-1.2-.18-1.2-.4-.36-.4-.8-.4-.8-.18-.8-.4-.439-.4-.976-.4-1.088-.18-1.224-.4-.597-.4-1.024-.4-.776-.18-.776-.4-.36-.4-.8-.4-.8-.18-.8-.4-.45-.4-1-.4-1-.18-1-.4c0-.409-1.799-.499-2.7-.135m257.9.135c0 .22-.45.4-1 .4s-1 .18-1 .4-.36.4-.8.4-.8.18-.8.4-.439.4-.976.4-1.088.18-1.224.4-.597.4-1.024.4-.776.18-.776.4-.36.4-.8.4-.8.18-.8.4-.54.4-1.2.4-1.2.18-1.2.4-.36.4-.8.4-.8.18-.8.4-.45.4-1 .4-1 .18-1 .4-.265.4-.588.4-1.229.36-2.012.8-1.768.8-2.189.8-.866.166-.992.369-.805.496-1.51.651c-1.212.266-1.575.409-3.504 1.38-.437.22-1.067.4-1.4.4s-.605.147-.605.328-.9.572-2 .872-2 .692-2 .872-.265.328-.588.328-1.229.36-2.012.8-1.689.8-2.012.8-.588.18-.588.4-.54.4-1.2.4-1.2.18-1.2.4-.36.4-.8.4-.8.18-.8.4-.349.4-.776.4-.888.18-1.024.4-.687.4-1.224.4-.976.18-.976.4-.36.4-.8.4-.8.18-.8.4-.439.4-.976.4-1.088.18-1.224.4-.597.4-1.024.4-.776.16-.776.356-.81.595-1.8.887-1.8.672-1.8.844-.36.313-.8.313-.8.18-.8.4-.375.4-.833.4c-2.718 0-.075 1.48 10.033 5.618l8.6 3.588c.88.398 3.04 1.295 4.8 1.994s3.92 1.599 4.8 2 3.04 1.299 4.8 1.997 3.74 1.515 4.4 1.817 5.34 2.27 10.4 4.373c9.778 4.064 10.899 4.671 11.722 6.349 1.19 2.428 1.278.734 1.278-24.736 0-16.933-.137-25.8-.4-25.8-.22 0-.4-.251-.4-.557s-.285-.667-.633-.8c-.992-.381-2.567-.285-2.567.157" fill="#a87c60"/><path d="M21.696 207.198c-.717.437-1.632 1.336-2.034 1.997s-.851 1.083-.997.937-.265 8.058-.265 18.23c0 15.957.083 18.578.604 19.099.332.332.484.797.338 1.033-.157.255-.078.313.196.144s.462-.031.462.338c0 .357.342.624.8.624.44 0 .8.18.8.4s.36.4.8.4.8.18.8.4.349.4.776.4.888.18 1.024.4.687.4 1.224.4.976.18.976.4.342.4.759.4 1.786.54 3.041 1.2 2.488 1.21 2.741 1.223 1.356.447 2.453.966 2.131.857 2.3.753.306.001.306.234.36.424.8.424.8.164.8.365.72.486 1.6.635 1.6.434 1.6.635.439.365.976.365 1.088.18 1.224.4.597.4 1.024.4.776.18.776.4.45.4 1 .4 1 .18 1 .4.265.4.588.4 1.229.36 2.012.8 1.779.8 2.212.8.788.18.788.4.525.4 1.167.4 1.226.135 1.3.3c.128.289 3.289 1.889 4.933 2.497 1.224.453 3.121 1.256 3.895 1.65.382.194.967.353 1.3.353s.605.18.605.4.36.4.8.4.8.191.8.424.148.332.329.22.831.058 1.445.376 1.367.58 1.672.58.554.141.554.313.495.353 1.1.403 1.16.269 1.233.487.293.397.488.397 1.339.45 2.542 1 2.557 1 3.011 1 .826.147.826.328.9.572 2 .872 2 .692 2 .872.265.328.588.328 1.229.36 2.012.8 1.779.8 2.212.8.788.18.788.4.461.4 1.024.4c.58 0 .916.173.776.4s.196.4.776.4c.563 0 1.024.18 1.024.4s.272.4.605.4.918.159 1.3.353 1.235.576 1.895.847 1.513.652 1.895.847.967.353 1.3.353.605.18.605.4.45.4 1 .4 1 .18 1 .4.265.4.588.4 1.229.36 2.012.8 1.779.8 2.212.8.788.18.788.4.355.4.788.4 1.39.338 2.127.752 1.9.875 2.584 1.026 1.46.532 1.722.848.671.574.908.574c.895 0 5.071 1.391 5.071 1.689 0 .171.265.311.588.311s1.229.36 2.012.8 1.779.8 2.212.8.788.18.788.4.36.4.8.4.8.18.8.4.45.4 1 .4 1 .18 1 .4.265.4.588.4 1.229.36 2.012.8 1.779.8 2.212.8.788.18.788.4.461.4 1.024.4c.58 0 .916.173.776.4s.174.4.71.4c.526 0 1.068.111 1.204.248.35.349-.735 1.352-1.462 1.352-.333 0-.716.18-.852.4s-.687.4-1.224.4-.976.18-.976.4-.36.4-.8.4-.8.18-.8.4-.45.4-1 .4-1 .18-1 .4-.349.4-.776.4-.888.18-1.024.4-.597.4-1.024.4-.776.191-.776.424-.157.326-.348.208-.777.157-1.3.611c-1 .868-2.774 1.748-6.384 3.167l-3.468 1.421-2.6 1.138c-.715.313-2.287.957-3.493 1.431s-3.147 1.298-4.312 1.831-2.193.969-2.283.969-4.09 1.633-8.888 3.63L86.4 325.871l-5.096 2.17c-.932.418-1.789.759-1.904.759s-1.062.378-2.104.84l-2.896 1.253c-2.819 1.166-3.618 1.746-5.3 3.843-1.161 1.448-1.067 37.223.1 38.064.44.317.8.837.8 1.155s.111.467.248.331.528.033.872.377c.989.989 7.701.542 10.08-.671.99-.504 2.025-.919 2.3-.921s.5-.154.5-.338.45-.333 1-.333 1-.18 1-.4.45-.4 1-.4 1-.18 1-.4.36-.4.8-.4.8-.18.8-.4.45-.4 1-.4 1-.18 1-.4.36-.4.8-.4.8-.18.8-.4.439-.4.976-.4 1.088-.18 1.224-.4.597-.4 1.024-.4.776-.18.776-.4.54-.4 1.2-.4 1.2-.18 1.2-.4.36-.4.8-.4.8-.18.8-.4.349-.4.776-.4.888-.18 1.024-.4.697-.4 1.247-.4c.565 0 .893-.174.753-.4s.204-.4.8-.4.941-.172.8-.4.263-.4.976-.4c.673 0 1.224-.18 1.224-.4s.36-.4.8-.4.8-.18.8-.4.349-.4.776-.4.888-.18 1.024-.4.687-.4 1.224-.4.976-.18.976-.4.36-.4.8-.4.8-.18.8-.4.477-.4 1.06-.4c.902 0 3.632-1.066 6.235-2.435.382-.201.967-.365 1.3-.365s.605-.18.605-.4.343-.4.762-.4 1.499-.36 2.4-.8l3.276-1.6c.901-.44 1.981-.8 2.4-.8s.762-.18.762-.4.281-.4.625-.4c.538 0 4.505-1.685 6.67-2.832.382-.202.967-.368 1.3-.368s.605-.18.605-.4.551-.4 1.224-.4c.713 0 1.12-.167.976-.4-.14-.227.196-.4.776-.4.563 0 1.024-.18 1.024-.4s.36-.4.8-.4.8-.18.8-.4.439-.4.976-.4 1.088-.18 1.224-.4.597-.4 1.024-.4.776-.141.776-.313.81-.552 1.8-.844 1.8-.691 1.8-.887.249-.356.554-.356c.747 0 4.795-1.295 5.046-1.615.11-.14 1.055-.503 2.1-.807s1.9-.693 1.9-.865.36-.313.8-.313.8-.18.8-.4.272-.4.605-.4.918-.159 1.3-.353 1.235-.576 1.895-.847 1.513-.652 1.895-.847.967-.353 1.3-.353.605-.18.605-.4.279-.4.619-.4 1.365-.36 2.275-.8 1.892-.8 2.181-.8.525-.18.525-.4.551-.4 1.224-.4c.713 0 1.12-.167.976-.4-.14-.227.196-.4.776-.4.563 0 1.024-.18 1.024-.4s.272-.4.605-.4.963-.18 1.4-.4l1.59-.8c.437-.22 1.077-.4 1.423-.4s.518-.18.382-.4c-.14-.226.188-.4.753-.4.55 0 1.111-.18 1.247-.4s.597-.4 1.024-.4.776-.18.776-.4.45-.4 1-.4 1-.18 1-.4.439-.4.976-.4 1.076-.161 1.198-.358c.242-.392 3.38.245 4.006.813.209.19.794.345 1.3.345s.92.18.92.4.45.4 1 .4 1 .18 1 .4.45.4 1 .4 1 .18 1 .4.36.4.8.4.8.18.8.4.349.4.776.4.888.18 1.024.4.597.4 1.024.4.776.18.776.4.439.4.976.4 1.088.18 1.224.4.597.4 1.024.4.776.18.776.4.36.4.8.4.8.147.8.328.9.572 2 .872 2 .692 2 .872.324.328.72.328c.894 0 2.873.894 2.877 1.3.002.165.346.3.765.3.659 0 1.827.486 4.933 2.05a3.96 3.96 0 0 0 1.5.35c.443 0 .805.18.805.4s.36.4.8.4.8.135.8.3 1.125.647 2.5 1.071 2.671.919 2.88 1.1.704.329 1.1.329.72.18.72.4.45.4 1 .4 1 .18 1 .4.349.4.776.4.888.18 1.024.4.597.4 1.024.4.776.18.776.4.362.4.805.4c.718 0 2.255.66 2.795 1.2.11.11.65.262 1.2.338s1.06.301 1.133.5.355.362.625.362 1.237.36 2.148.8 1.919.8 2.241.8.649.188.726.418.541.448 1.033.485.894.209.894.382.36.315.8.315.8.18.8.4.36.4.8.4.8.142.8.315.343.341.762.372 1.533.43 2.475.885 2.039.828 2.438.828.725.18.725.4.324.4.72.4.891.154 1.1.343c.695.628 7.253 3.257 8.123 3.257.471 0 .857.18.857.4s.36.4.8.4.8.18.8.4.349.4.776.4.888.18 1.024.4.687.4 1.224.4.976.18.976.4.272.4.604.4 1.458.381 2.5.847l3.296 1.44c.77.327 2.29 1.026 3.379 1.553s2.303.96 2.7.96.721.18.721.4.36.4.8.4.8.147.8.328.9.572 2 .872 2 .653 2 .785.81.48 1.8.772 1.8.691 1.8.887.45.356 1 .356 1 .18 1 .4.265.4.59.4 1.809.571 3.3 1.268c3.394 1.588 9.844 2.141 11.038.947.37-.37.672-.556.672-.415s.27-.013.6-.343.6-.793.6-1.028.18-.429.4-.429c.261 0 .4-6.4.4-18.4 0-11.292-.146-18.4-.378-18.4-.208 0-.613-.479-.9-1.064-.823-1.678-1.944-2.285-11.722-6.349l-10.4-4.373c-.66-.302-2.64-1.12-4.4-1.817s-3.92-1.596-4.8-1.997-3.04-1.301-4.8-2-3.92-1.596-4.8-1.993-4.48-1.899-8-3.337c-9.225-3.768-10.998-4.598-11.256-5.271-.126-.329-.57-.599-.987-.599s-.757-.18-.757-.4-.36-.4-.8-.4-.8-.18-.8-.4-.349-.4-.776-.4-.888-.18-1.024-.4-.687-.4-1.224-.4-.976-.18-.976-.4-.36-.4-.8-.4-.8-.18-.8-.4-.405-.413-.9-.429c-2.077-.068-4.538-2.371-2.533-2.371.568 0 1.033-.18 1.033-.4s.36-.4.8-.4.8-.18.8-.4.355-.4.788-.4 1.429-.36 2.212-.8 1.689-.8 2.012-.8.588-.18.588-.4.45-.4 1-.4 1-.18 1-.4.272-.4.605-.4.918-.159 1.3-.353c.673-.343 1.245-.588 3.995-1.711.715-.292 1.3-.667 1.3-.834s.439-.302.976-.302 1.088-.18 1.224-.4.552-.406.924-.414 1.396-.361 2.276-.786 1.753-.779 1.94-.786.996-.302 1.8-.655l2.46-1.046c.55-.224 1.313-.565 1.695-.76s.967-.353 1.3-.353.605-.18.605-.4.349-.4.776-.4.888-.18 1.024-.4.582-.4.99-.4.803-.178.877-.397.628-.437 1.233-.487 1.1-.187 1.1-.306.585-.45 1.3-.739 1.613-.692 1.995-.897 1.057-.374 1.5-.374.805-.18.805-.4.36-.4.8-.4.8-.18.8-.4.45-.4 1-.4 1-.18 1-.4.36-.4.8-.4.8-.18.8-.4.349-.4.776-.4.888-.18 1.024-.4.687-.4 1.224-.4.976-.18.976-.4.345-.4.767-.4.826-.178.9-.397.615-.436 1.204-.484.984-.231.877-.404.265-.315.828-.315 1.024-.16 1.024-.355.656-.479 1.458-.63 1.92-.575 2.483-.944 1.032-.614 1.041-.545c.026.18 1.361-.285 3.218-1.119l2.984-1.335c.761-.338 1.526-.528 1.7-.42s.316.005.316-.228.36-.424.8-.424.8-.18.8-.4.45-.4 1-.4 1-.18 1-.4.349-.4.776-.4.888-.18 1.024-.4.597-.4 1.024-.4.776-.18.776-.4.45-.4 1-.4 1-.18 1-.4.249-.4.554-.4 1.057-.261 1.672-.58 1.292-.47 1.507-.338.263.036.105-.22c-.187-.303.067-.462.738-.462.563 0 1.024-.18 1.024-.4s.36-.4.8-.4.8-.18.8-.4.54-.4 1.2-.4 1.2-.18 1.2-.4.345-.4.767-.4.826-.178.9-.397.615-.436 1.204-.484.984-.231.877-.404.088-.315.434-.315.986-.18 1.423-.4l1.59-.8c.437-.22 1.002-.4 1.256-.4s1.201-.337 2.105-.749c3.393-1.546 4.688-2.051 5.258-2.051.322 0 .586-.18.586-.4s.349-.4.776-.4.888-.18 1.024-.4.687-.4 1.224-.4.976-.18.976-.4.315-.406.7-.413 1.775-.546 3.09-1.2 2.709-1.187 3.1-1.187.71-.18.71-.4.283-.4.629-.4.9-.272 1.232-.604.769-.501.971-.376.368-.019.368-.321.36-.935.8-1.407c.833-.894 1.312-36.892.491-36.892-.17 0-.635-.605-1.033-1.345-1.679-3.116-4.927-3.736-9.503-1.814L350 216.281l-7.696 3.272c-1.042.466-1.989.847-2.104.847s-1.062.378-2.104.84l-2.796 1.2c-.495.198-1.305.536-1.8.751-1.47.639-13.427 5.605-17.1 7.102l-5 2.111c-.88.398-3.04 1.295-4.8 1.993l-4.5 1.835-2.6 1.137c-.715.313-2.275.952-3.468 1.421s-2.917 1.193-3.832 1.61a93.87 93.87 0 0 1-3.654 1.543c-4.188 1.65-19.779 8.154-23.042 9.61-1.042.466-1.989.847-2.104.847s-1.062.378-2.104.84l-2.696 1.159c-.44.176-1.43.59-2.2.921l-12.2 5.063-12 5.008c-.66.301-2.19.935-3.4 1.409-2.28.894-3.289 1.322-6.496 2.753-1.042.466-1.983.847-2.09.847s-1.373.54-2.814 1.2-2.779 1.2-2.972 1.2-1.134.386-2.09.857a48.78 48.78 0 0 1-2.738 1.253l-2 .79c-.55.216-1.313.552-1.695.747s-.967.353-1.3.353-.605.18-.605.4-.349.4-.776.4-.888.18-1.024.4c-.548.887-3.201.174-9.6-2.581l-9.4-3.93-14.8-6.174-2.2-.916c-.44-.176-1.653-.697-2.696-1.159s-1.989-.84-2.104-.84-.972-.341-1.904-.759c-1.811-.81-3.555-1.538-17.296-7.221l-9.6-3.989-2.2-.959c-.77-.335-2.39-.998-3.6-1.472l-3.5-1.431-2.6-1.138c-.715-.313-2.29-.957-3.5-1.431s-2.74-1.109-3.4-1.41-3.9-1.657-7.2-3.013l-7.6-3.186c-.88-.396-3.04-1.29-4.8-1.988l-4.5-1.835-2.6-1.137c-.715-.313-2.29-.957-3.5-1.431l-3.5-1.431-8.9-3.749-18.096-7.573c-1.042-.466-1.989-.847-2.104-.847s-1.062-.378-2.104-.84l-2.696-1.159c-.44-.176-1.43-.593-2.2-.928s-2.84-1.179-4.6-1.876-3.92-1.596-4.8-1.997c-7.246-3.301-10.451-3.897-12.904-2.402" fill="#eac29a"/><path d="M65.022 37.724c-3.201 1.959-3.065.492-2.832 30.676l1.273 103.404c.787 1.368 1.901 2.157 4.569 3.233l3.768 1.555c.66.285 2.64 1.061 4.4 1.724l5 1.887c12.373 4.69 33.234 10.032 43.2 11.062 4.554.471 17.762.183 20.8-.453 18.608-3.897 41.428 9.478 48.437 28.388 1.23 3.319 3.511 5.573 5.661 5.593.739.007 1.34-146.398.602-146.726-.165-.074-.3-.389-.3-.7s-.18-.567-.4-.567-.4-.186-.4-.412-1.061-1.476-2.357-2.777-2.271-2.45-2.166-2.555-.189-.395-.654-.644-.737-.628-.604-.842.092-.364-.089-.333c-1.041.181-1.53-.049-.93-.437.476-.308.393-.39-.4-.4-.711-.009-.844-.111-.46-.355.403-.255.223-.483-.704-.893-.685-.303-1.345-.867-1.468-1.252s-.473-.7-.781-.7-.752-.36-.987-.8-.652-.8-.926-.8-.75-.35-1.059-.779-.685-.702-.836-.608-.68-.181-1.175-.609-1.238-.888-1.652-1.019-.752-.386-.752-.565c0-.323-1.519-.947-2.1-.863-.165.024-.3-.137-.3-.357s-.36-.4-.8-.4-.8-.18-.8-.4-.461-.4-1.024-.4c-.58 0-.916-.173-.776-.4.136-.22-.118-.4-.564-.4s-1.453-.36-2.236-.8-1.779-.8-2.212-.8-.788-.18-.788-.4-.709-.4-1.576-.4-1.688-.18-1.824-.4-.856-.4-1.6-.4-1.464-.18-1.6-.4-1.767-.4-3.624-.4c-1.984 0-3.376-.165-3.376-.4s-1.541-.4-3.824-.4c-2.264 0-3.729.152-3.593.373.309.5-6.181.867-15.583.882-8.325.013-13.13-.321-12.779-.889.124-.201-.584-.366-1.574-.366s-1.911-.18-2.047-.4-.946-.4-1.8-.4-1.664-.18-1.8-.4-.867-.4-1.624-.4-1.376-.142-1.376-.315-.582-.359-1.293-.413-1.468-.273-1.68-.485-1.082-.387-1.931-.387c-.927 0-1.444-.16-1.296-.4.144-.233-.263-.4-.976-.4-.673 0-1.224-.169-1.224-.375s-.337-.35-.748-.319c-.807.061-3.816-.757-4.947-1.345a3.86 3.86 0 0 0-1.5-.361c-.443 0-.805-.135-.805-.3s-.474-.327-1.053-.361-1.198-.298-1.378-.588-.456-.397-.615-.238-.725.005-1.257-.344-1.071-.528-1.2-.4-.667-.051-1.197-.398-1.214-.536-1.52-.419-.661.041-.791-.169S83.603 42 83.176 42s-.776-.141-.776-.313-.495-.353-1.1-.403-1.16-.269-1.233-.487-.579-.397-1.124-.397-.903-.142-.795-.315-.288-.355-.877-.404-1.131-.266-1.204-.484-.479-.397-.9-.397-.767-.191-.767-.424-.148-.332-.329-.22-.831-.058-1.445-.376c-1.358-.705-6.484-.742-7.604-.056M283.4 51.6c-.136.22.023.4.353.4s.711-.18.847-.4-.023-.4-.353-.4-.711.18-.847.4m-38.784.827c.289.466 2.184.496 2.184.034 0-.187-.543-.355-1.207-.374s-1.104.134-.977.34m3.691.263c.719.089 1.799.087 2.4-.004s.013-.164-1.307-.162-1.812.077-1.093.166" fill="#dce3e4"/><path d="M337.2 134.266l-.2 38.067-1 .882c-1.219 1.076-5.252 2.964-10.6 4.962l-4.8 1.832c-.44.186-1.97.719-3.4 1.184s-2.913 1.016-3.295 1.226a3.64 3.64 0 0 1-1.476.381c-.43 0-.893.18-1.029.4s-.766.4-1.4.4-1.264.18-1.4.4-.599.4-1.029.4a3.9 3.9 0 0 0-1.476.351c-.666.336-1.267.522-5.295 1.641-.99.274-2.16.646-2.6.826s-1.34.419-2 .531c-2.181.369-3.59.707-4.4 1.056-.44.19-1.43.437-2.2.548s-2.255.393-3.3.625l-3.8.834c-5.941 1.288-16.021 1.61-24.1.772-15.697-1.63-24.782.122-34.638 6.677-7.447 4.953-11.665 10.165-17.02 21.034-.188.382-.342.905-.342 1.162 0 1.513-3.742 4.739-5.5 4.742l-.9.001v14.2c0 13.582-.032 14.2-.745 14.2-.698 0-8.046-2.902-12.767-5.043-1.161-.526-2.253-.957-2.425-.957s-1.058-.36-1.969-.8-1.827-.8-2.037-.8-1.163-.386-2.119-.857-2.098-.993-2.538-1.16-1.653-.681-2.696-1.143-1.989-.84-2.104-.84-1.062-.378-2.104-.84-2.256-.976-2.696-1.143-1.582-.689-2.538-1.16-1.903-.857-2.104-.857-1.22-.381-2.262-.847c-2.835-1.265-3.869-1.702-8.896-3.753l-6-2.479-2.3-.962c-2.287-.913-3.15-1.278-3.795-1.606-.382-.194-.967-.353-1.3-.353s-.605-.18-.605-.4-.272-.4-.605-.4-.918-.159-1.3-.353c-.774-.394-2.671-1.197-3.895-1.65-.44-.163-1.7-.701-2.8-1.197s-2.36-1.041-2.8-1.211-1.653-.687-2.696-1.149-1.989-.84-2.104-.84-.972-.35-1.904-.778-3.316-1.431-5.296-2.227l-4.8-1.991c-.66-.298-2.19-.93-3.4-1.404l-3.6-1.472c-1.387-.604-2.36-1.002-4.1-1.677-.495-.192-1.8-.755-2.9-1.251s-2.36-1.041-2.8-1.211-1.653-.687-2.696-1.149-1.989-.84-2.104-.84-1.062-.378-2.104-.84l-2.896-1.253-6.896-2.895c-2.363-.997-4.408-1.812-4.543-1.812s-1.376-.539-2.757-1.198c-3.968-1.894-3.962-1.872-4.216-16.002l-.211-11.8-.089 11.92c-.11 14.881-.171 14.724 6.768 17.486a175.11 175.11 0 0 1 5.854 2.462c1.381.623 2.658 1.132 2.839 1.132s.851.25 1.49.556c1.178.565 3.703 1.663 5.161 2.245.44.176 1.653.697 2.696 1.159s1.989.84 2.104.84 1.062.378 2.104.84l2.696 1.191c2.061.905 23.092 9.569 23.227 9.569.084 0 1.282.508 2.663 1.13s3.14 1.37 3.91 1.664 1.571.685 1.78.87a1.56 1.56 0 0 0 .888.336c.28 0 1.462.436 2.627.969s3.091 1.353 4.28 1.821 2.895 1.185 3.793 1.591 4.152 1.767 7.232 3.023l7.2 3.004c.88.396 3.04 1.293 4.8 1.992s3.92 1.599 4.8 2 3.04 1.301 4.8 2l4.8 1.986c.88.393 4.12 1.753 7.2 3.02l9.718 4.05c2.265.959 4.195 1.744 4.29 1.744s1.391.564 2.882 1.253c2.789 1.29 6.697 1.716 7.819.852.27-.208 1.301-.692 2.291-1.075s2.43-.969 3.2-1.304l2.3-.967 1.8-.718c.495-.198 1.62-.669 2.5-1.048l5.2-2.193a107.81 107.81 0 0 0 5.161-2.244c.639-.306 1.309-.556 1.489-.556s1.277-.431 2.438-.957 4.632-1.983 7.712-3.237l7-2.883c.77-.333 1.76-.741 2.2-.907s1.582-.688 2.538-1.159 1.903-.857 2.104-.857 1.22-.378 2.262-.84 2.256-.976 2.696-1.143 1.582-.689 2.538-1.16 1.896-.857 2.09-.857 1.531-.54 2.972-1.2 2.707-1.2 2.814-1.2 1.048-.381 2.09-.847c3.771-1.684 4.519-1.998 6.987-2.935 2.201-.835 4.909-1.956 9.909-4.099l2.2-.92c.44-.176 1.653-.697 2.696-1.159s1.989-.84 2.104-.84 1.062-.378 2.104-.84 2.256-.976 2.696-1.143 1.582-.689 2.538-1.16 1.903-.857 2.104-.857 1.22-.378 2.262-.84 2.256-.976 2.696-1.143 1.582-.689 2.538-1.16 1.903-.857 2.104-.857 1.13-.352 2.062-.781 2.686-1.164 3.896-1.632a116.25 116.25 0 0 0 3.6-1.459l2.2-.928c.874-.348 2.713-1.124 5.2-2.193l2.6-1.101c2.556-1.055 3.084-1.326 4.3-2.206 2.685-1.943 2.514 1.811 2.402-52.583L337.4 96.2l-.2 38.066" fill="#94a4ab"/></svg>